<svg width="80mm" height="80mm" viewBox="0 0 80 80" version="1.1" id="svg8" >
  <defs>
    <marker id="startarrow" markerWidth="3" markerHeight="2" 
    refX="3" refY="1" orient="auto">
      <polygon points="3 0, 3 2, 0 1"/>
    </marker>
    <marker id="endarrow" markerWidth="3" markerHeight="2" 
    refX="0" refY="1" orient="auto" markerUnits="strokeWidth">
        <polygon points="0 0, 3 1, 0 2"/>
    </marker>
  </defs>

<g transform="translate(-1.3367304,-0.03395404)"><rect id="rect3713-3-2-0-9-3" width="80.000008" height="80.291901" x="1.3730781" y="-0.25795004" style="fill:#ffce9e;fill-opacity:1;stroke-width:0.51720124" /><rect id="rect3713" width="10" height="10" x="1.373101" y="0.033954043" style="fill:#d18b47;fill-opacity:1;stroke-width:0.06453253" /><rect id="rect3713-6" width="10" height="10" x="21.373093" y="0.033954043" style="fill:#d18b47;fill-opacity:1;stroke-width:0.06453253" /><rect id="rect3713-5" width="10" height="10" x="41.373089" y="0.033954043" style="fill:#d18b47;fill-opacity:1;stroke-width:0.06453253" /><rect id="rect3713-6-5" width="10" height="10" x="61.373081" y="0.033954043" style="fill:#d18b47;fill-opacity:1;stroke-width:0.06453253" /><rect id="rect3713-9" width="10" height="10" x="11.373092" y="10.033952" style="fill:#d18b47;fill-opacity:1;stroke-width:0.06453253" /><rect id="rect3713-6-2" width="10" height="10" x="31.373093" y="10.033952" style="fill:#d18b47;fill-opacity:1;stroke-width:0.06453253" /><rect id="rect3713-5-0" width="10" height="10" x="51.373081" y="10.033952" style="fill:#d18b47;fill-opacity:1;stroke-width:0.06453253" /><rect id="rect3713-6-5-3" width="10" height="10" x="71.373085" y="10.033952" style="fill:#d18b47;fill-opacity:1;stroke-width:0.06453253" /><rect id="rect3713-62" width="10" height="10" x="1.3730934" y="20.033951" style="fill:#d18b47;fill-opacity:1;stroke-width:0.06453253" /><rect id="rect3713-6-1" width="10" height="10" x="21.373077" y="20.033951" style="fill:#d18b47;fill-opacity:1;stroke-width:0.06453253" /><rect id="rect3713-5-7" width="10" height="10" x="41.373074" y="20.033951" style="fill:#d18b47;fill-opacity:1;stroke-width:0.06453253" /><rect id="rect3713-6-5-0" width="10" height="10" x="61.373081" y="20.033951" style="fill:#d18b47;fill-opacity:1;stroke-width:0.06453253" /><rect id="rect3713-9-3" width="10" height="10" x="11.373076" y="30.033951" style="fill:#d18b47;fill-opacity:1;stroke-width:0.06453253" /><rect id="rect3713-6-2-5" width="10" height="10" x="31.373077" y="30.033951" style="fill:#d18b47;fill-opacity:1;stroke-width:0.06453253" /><rect id="rect3713-5-0-2" width="10" height="10" x="51.373081" y="30.033951" style="fill:#d18b47;fill-opacity:1;stroke-width:0.06453253" /><rect id="rect3713-6-5-3-8" width="10" height="10" x="71.373085" y="30.033951" style="fill:#d18b47;fill-opacity:1;stroke-width:0.06453253" /><rect id="rect3713-7" width="10" height="10" x="1.3730934" y="40.033951" style="fill:#d18b47;fill-opacity:1;stroke-width:0.06453253" /><rect id="rect3713-6-12" width="10" height="10" x="21.373077" y="40.033951" style="fill:#d18b47;fill-opacity:1;stroke-width:0.06453253" /><rect id="rect3713-5-3" width="10" height="10" x="41.373074" y="40.033951" style="fill:#d18b47;fill-opacity:1;stroke-width:0.06453253" /><rect id="rect3713-6-5-9" width="10" height="10" x="61.373081" y="40.033951" style="fill:#d18b47;fill-opacity:1;stroke-width:0.06453253" /><rect id="rect3713-9-7" width="10" height="10" x="11.373076" y="50.033951" style="fill:#d18b47;fill-opacity:1;stroke-width:0.06453253" /><rect id="rect3713-6-2-4" width="10" height="10" x="31.373093" y="50.033951" style="fill:#d18b47;fill-opacity:1;stroke-width:0.06453253" /><rect id="rect3713-5-0-0" width="10" height="10" x="51.373081" y="50.033951" style="fill:#d18b47;fill-opacity:1;stroke-width:0.06453253" /><rect id="rect3713-6-5-3-6" width="10" height="10" x="71.373085" y="50.033951" style="fill:#d18b47;fill-opacity:1;stroke-width:0.06453253" /><rect id="rect3713-62-0" width="10" height="10" x="1.3730781" y="60.033951" style="fill:#d18b47;fill-opacity:1;stroke-width:0.06453253" /><rect id="rect3713-6-1-3" width="10" height="10" x="21.373062" y="60.033951" style="fill:#d18b47;fill-opacity:1;stroke-width:0.06453253" /><rect id="rect3713-5-7-0" width="10" height="10" x="41.373058" y="60.033951" style="fill:#d18b47;fill-opacity:1;stroke-width:0.06453253" /><rect id="rect3713-6-5-0-1" width="10" height="10" x="61.373081" y="60.033951" style="fill:#d18b47;fill-opacity:1;stroke-width:0.06453253" /><rect id="rect3713-9-3-5" width="10" height="10" x="11.373061" y="70.033951" style="fill:#d18b47;fill-opacity:1;stroke-width:0.06453253" /><rect id="rect3713-6-2-5-7" width="10" height="10" x="31.373062" y="70.033951" style="fill:#d18b47;fill-opacity:1;stroke-width:0.06453253" /><rect id="rect3713-5-0-2-5" width="10" height="10" x="51.373081" y="70.033951" style="fill:#d18b47;fill-opacity:1;stroke-width:0.06453253" /><rect id="rect3713-6-5-3-8-9" width="10" height="10" x="71.373085" y="70.033951" style="fill:#d18b47;fill-opacity:1;stroke-width:0.06453253" /></g><!-- PIECES --></svg>
